<svg width="24" height="20" viewBox="0 0 24 20" fill="none" xmlns="http://www.w3.org/2000/svg">
<path d="M1.59429 12.7375C1.78041 12.7375 1.9589 12.8115 2.09051 12.9431C2.22212 13.0747 2.29605 13.2532 2.29605 13.4393V16.9481C2.29605 17.3204 2.44393 17.6774 2.70714 17.9406C2.97036 18.2038 3.32735 18.3517 3.69959 18.3517H20.542C20.9143 18.3517 21.2713 18.2038 21.5345 17.9406C21.7977 17.6774 21.9456 17.3204 21.9456 16.9481V13.4393C21.9456 13.2532 22.0195 13.0747 22.1511 12.9431C22.2827 12.8115 22.4612 12.7375 22.6473 12.7375C22.8335 12.7375 23.012 12.8115 23.1436 12.9431C23.2752 13.0747 23.3491 13.2532 23.3491 13.4393V16.9481C23.3491 17.6926 23.0534 18.4066 22.5269 18.933C22.0005 19.4595 21.2865 19.7552 20.542 19.7552H3.69959C2.95511 19.7552 2.24112 19.4595 1.71469 18.933C1.18826 18.4066 0.892517 17.6926 0.892517 16.9481V13.4393C0.892517 13.2532 0.966453 13.0747 1.09806 12.9431C1.22967 12.8115 1.40817 12.7375 1.59429 12.7375Z" fill="black"/>
<path d="M11.6239 15.48C11.6891 15.5454 11.7666 15.5972 11.8518 15.6326C11.9371 15.668 12.0285 15.6862 12.1208 15.6862C12.2131 15.6862 12.3045 15.668 12.3898 15.6326C12.475 15.5972 12.5525 15.5454 12.6176 15.48L16.8283 11.2694C16.96 11.1376 17.0341 10.9589 17.0341 10.7726C17.0341 10.5862 16.96 10.4075 16.8283 10.2757C16.6965 10.1439 16.5178 10.0699 16.3314 10.0699C16.145 10.0699 15.9663 10.1439 15.8345 10.2757L12.8226 13.2891V0.947801C12.8226 0.761681 12.7486 0.583183 12.617 0.451576C12.4854 0.319969 12.3069 0.246033 12.1208 0.246033C11.9347 0.246033 11.7562 0.319969 11.6246 0.451576C11.493 0.583183 11.419 0.761681 11.419 0.947801V13.2891L8.40703 10.2757C8.27525 10.1439 8.09653 10.0699 7.91017 10.0699C7.72382 10.0699 7.5451 10.1439 7.41332 10.2757C7.28155 10.4075 7.20752 10.5862 7.20752 10.7726C7.20752 10.9589 7.28155 11.1376 7.41332 11.2694L11.6239 15.48Z" fill="black"/>
</svg>
