<svg width="24" height="25" viewBox="0 0 24 25" fill="none" xmlns="http://www.w3.org/2000/svg">
<path d="M23.408 2.44979C23.5052 2.5471 23.5716 2.67081 23.599 2.80555C23.6265 2.9403 23.6137 3.08014 23.5624 3.2077L15.3952 23.625C15.3232 23.8048 15.203 23.9612 15.0479 24.0771C14.8927 24.193 14.7086 24.2639 14.5157 24.2819C14.3229 24.2999 14.1288 24.2643 13.9549 24.1791C13.781 24.0939 13.6339 23.9624 13.5299 23.799L9.06947 16.7883L2.05879 12.3279C1.89503 12.224 1.76314 12.0769 1.67769 11.9028C1.59224 11.7287 1.55655 11.5344 1.57455 11.3413C1.59256 11.1482 1.66356 10.9638 1.77972 10.8085C1.89588 10.6532 2.05268 10.533 2.23283 10.4612L22.6501 2.2968C22.7777 2.24545 22.9175 2.23271 23.0522 2.26015C23.187 2.2876 23.3107 2.35403 23.408 2.45119V2.44979ZM10.4702 16.3785L14.3454 22.467L20.9883 5.86039L10.4702 16.3785ZM19.996 4.86808L3.38935 11.511L9.4793 15.3848L19.9974 4.86808H19.996Z" fill="black"/>
</svg>
