<svg width="23" height="27" viewBox="0 0 23 27" fill="none" xmlns="http://www.w3.org/2000/svg">
<path d="M15.3693 23.7449L10.7201 21.2415L11.3919 19.8978C11.5279 19.6259 11.5732 19.3176 11.5213 19.0181C11.4693 18.7186 11.3229 18.4436 11.1033 18.2333C10.8837 18.0231 10.6026 17.8887 10.3011 17.8498C9.99958 17.8109 9.69355 17.8695 9.4278 18.0172L6.30868 19.75H1V20.5834H6V25.1667H1V26H14.8008C15.0678 26 15.3272 25.9109 15.5378 25.7468C15.7485 25.5826 15.8983 25.3529 15.9636 25.0939C16.0289 24.835 16.0059 24.5617 15.8982 24.3173C15.7906 24.0729 15.6044 23.8715 15.3693 23.7449ZM14.8008 25.1667H6.83333V20.4118L9.83252 18.7456C9.94266 18.6844 10.0695 18.6601 10.1945 18.6762C10.3194 18.6924 10.4359 18.7481 10.527 18.8352C10.618 18.9224 10.6787 19.0363 10.7002 19.1605C10.7217 19.2846 10.7029 19.4124 10.6466 19.5251L9.79399 21.2303C9.74554 21.3272 9.73673 21.4392 9.76942 21.5424C9.80211 21.6457 9.87373 21.7322 9.96911 21.7836L14.9742 24.4786C15.0459 24.5172 15.1027 24.5787 15.1356 24.6532C15.1684 24.7278 15.1755 24.8112 15.1556 24.8902C15.1356 24.9692 15.0899 25.0393 15.0257 25.0894C14.9614 25.1395 14.8822 25.1667 14.8008 25.1667Z" fill="black" stroke="black" stroke-width="0.5"/>
<path d="M16.5892 6.41667L16.7828 6.22314C17.1964 5.81178 17.5243 5.32247 17.7476 4.78352C17.9708 4.24457 18.0849 3.66669 18.0833 3.08334C18.0833 2.97283 18.0394 2.86685 17.9613 2.78871C17.8832 2.71057 17.7772 2.66668 17.6667 2.66667H16.6742L16.265 1.84835C16.1383 1.59281 15.9426 1.37789 15.7 1.22794C15.4573 1.078 15.1776 0.999037 14.8923 1.00001C14.6542 1.00058 14.4194 1.05631 14.2064 1.16282C13.9934 1.26933 13.8079 1.42373 13.6646 1.61392L13.2656 2.14589C13.1902 2.24641 13.0791 2.31424 12.9552 2.33546C12.8313 2.35667 12.704 2.32966 12.5994 2.25998L12.0645 1.90333C12.0117 1.86816 11.9515 1.8455 11.8887 1.83707C11.8258 1.82865 11.7618 1.83468 11.7016 1.8547L11.1462 2.03979C10.8608 2.13466 10.6126 2.31702 10.4367 2.561C10.2609 2.80498 10.1664 3.09815 10.1667 3.39889C10.1635 4.49792 10.5498 5.56254 11.2569 6.40385L8.06241 9.59833C7.27399 10.3825 6.64893 11.3152 6.22339 12.3425C5.79786 13.3698 5.58032 14.4714 5.58334 15.5833C5.58165 16.6345 5.77982 17.6764 6.1673 18.6536L6.94194 18.3464C6.59332 17.467 6.41507 16.5293 6.41668 15.5833C6.41394 14.5809 6.61007 13.5878 6.9937 12.6616C7.37734 11.7354 7.94086 10.8946 8.65166 10.1876L12.0059 6.83334H12.9107L12.8602 6.8839C12.6661 7.07691 12.5123 7.30649 12.4075 7.55935C12.3028 7.81221 12.2493 8.08334 12.25 8.35703V9.33334H13.0833V8.35703C13.0829 8.19281 13.115 8.03014 13.1779 7.87842C13.2407 7.7267 13.333 7.58895 13.4494 7.47314L13.9167 7.00593L14.3839 7.47309C14.5003 7.58891 14.5926 7.72666 14.6555 7.87839C14.7183 8.03012 14.7504 8.1928 14.75 8.35703V9.33334H15.5833V8.35703C15.5841 8.08333 15.5305 7.81219 15.4258 7.55932C15.321 7.30645 15.1672 7.07686 14.9731 6.88385L14.9226 6.83334H15.8274L19.1817 10.1876C19.8925 10.8946 20.456 11.7354 20.8396 12.6616C21.2233 13.5878 21.4194 14.5809 21.4167 15.5833C21.4187 17.1588 20.9239 18.6948 20.0026 19.9728C19.0813 21.2508 17.7805 22.2057 16.2852 22.7018L16.5482 23.4925C18.2096 22.9414 19.655 21.8804 20.6787 20.4604C21.7024 19.0404 22.2522 17.3338 22.25 15.5833C22.253 14.4714 22.0355 13.3698 21.61 12.3425C21.1844 11.3152 20.5594 10.3825 19.7709 9.59833L16.5892 6.41667ZM15.8274 6.00001H12.0117C11.3588 5.29145 10.9974 4.36245 11 3.39889C10.9999 3.2731 11.0394 3.15046 11.113 3.04841C11.1865 2.94636 11.2904 2.87008 11.4097 2.8304L11.7718 2.70971L12.1372 2.95334C12.419 3.14114 12.7621 3.21392 13.0959 3.15675C13.4297 3.09957 13.729 2.91677 13.9323 2.64587L14.3313 2.1139C14.3968 2.02699 14.4815 1.95643 14.5789 1.90775C14.6762 1.85907 14.7835 1.83361 14.8923 1.83334C15.0227 1.8329 15.1506 1.86899 15.2614 1.93752C15.3723 2.00605 15.4618 2.10428 15.5197 2.22107L16.044 3.2697C16.0786 3.33891 16.1318 3.39711 16.1976 3.43779C16.2634 3.47847 16.3393 3.50001 16.4167 3.50001H17.2264C17.1345 4.30797 16.7702 5.06057 16.1935 5.6339L15.8274 6.00001Z" fill="black" stroke="black" stroke-width="0.5"/>
<path d="M19.3333 15.5833C19.3327 14.7948 19.16 14.016 18.8272 13.3011C18.4944 12.5863 18.0095 11.9528 17.4065 11.4448C16.8034 10.9368 16.0968 10.5665 15.3358 10.36C14.5749 10.1534 13.778 10.1154 13.0008 10.2487C12.2237 10.382 11.485 10.6834 10.8364 11.1318C10.1878 11.5802 9.64495 12.1648 9.2457 12.8447C8.84645 13.5247 8.60046 14.2836 8.52492 15.0685C8.44937 15.8533 8.5461 16.6452 8.80833 17.3888L9.59403 17.1111C9.24866 16.132 9.24631 15.0646 9.58736 14.084C9.92842 13.1034 10.5926 12.2678 11.471 11.7143C12.3494 11.1608 13.3898 10.9223 14.4216 11.0379C15.4534 11.1535 16.4153 11.6163 17.1494 12.3505C17.8836 13.0846 18.3464 14.0464 18.462 15.0782C18.5776 16.11 18.3391 17.1504 17.7857 18.0288C17.2322 18.9072 16.3966 19.5715 15.416 19.9125C14.4354 20.2536 13.368 20.2513 12.3889 19.9059L12.1111 20.6917C12.9282 20.9797 13.8025 21.0677 14.6606 20.9482C15.5188 20.8287 16.3357 20.5053 17.0431 20.0049C17.7504 19.5046 18.3275 18.842 18.726 18.0727C19.1245 17.3034 19.3328 16.4497 19.3333 15.5833Z" fill="black" stroke="black" stroke-width="0.5"/>
<path d="M12.881 14.1907L12.4523 13.476L11.6189 13.976C11.5572 14.013 11.5062 14.0654 11.4707 14.128C11.4353 14.1906 11.4166 14.2614 11.4166 14.3333V16.8333C11.4166 16.9053 11.4353 16.976 11.4707 17.0386C11.5062 17.1012 11.5572 17.1536 11.6189 17.1906L13.7022 18.4406C13.767 18.4795 13.8411 18.5 13.9166 18.5C13.9921 18.5 14.0662 18.4795 14.131 18.4406L16.2143 17.1906C16.276 17.1536 16.3271 17.1012 16.3625 17.0386C16.398 16.976 16.4166 16.9053 16.4166 16.8333L16.4166 14.3333C16.4166 14.2613 16.398 14.1906 16.3625 14.128C16.3271 14.0654 16.276 14.013 16.2143 13.976L14.131 12.726C14.0662 12.6872 13.9921 12.6667 13.9166 12.6667C13.8411 12.6667 13.767 12.6872 13.7023 12.726L13.0078 13.1427L13.4365 13.8573L13.9166 13.5692L15.5833 14.5692L15.5833 16.5974L13.9166 17.5974L12.25 16.5974V14.5692L12.881 14.1907Z" fill="black" stroke="black" stroke-width="0.5"/>
</svg>
