<svg width="25" height="25" viewBox="0 0 25 25" fill="none" xmlns="http://www.w3.org/2000/svg">
<path d="M6.84783 3.17559C6.46419 3.04766 6.04929 3.25509 5.92136 3.63883L5.04719 6.26134L4.17307 3.63883C4.04514 3.25509 3.63035 3.04762 3.24661 3.17559C2.86287 3.30352 2.65549 3.71827 2.78337 4.10206L4.35237 8.80909C4.45208 9.10816 4.73196 9.30992 5.04719 9.30992C5.36243 9.30992 5.64231 9.10816 5.74202 8.80909L7.31106 4.10206C7.43899 3.71832 7.23162 3.30352 6.84783 3.17559Z" fill="black"/>
<path d="M17.2071 3.13803H14.4613C14.0568 3.13803 13.7289 3.46596 13.7289 3.87045C13.7289 4.27495 14.0568 4.60287 14.4613 4.60287H15.1017V8.57748C15.1017 8.98198 15.4297 9.30991 15.8342 9.30991C16.2386 9.30991 16.5666 8.98198 16.5666 8.57748V4.60287H17.2071C17.6115 4.60287 17.9395 4.27495 17.9395 3.87045C17.9395 3.46596 17.6116 3.13803 17.2071 3.13803Z" fill="black"/>
<path d="M21.5219 4.60287C21.9264 4.60287 22.2543 4.27495 22.2543 3.87045C22.2543 3.46596 21.9264 3.13803 21.5219 3.13803H19.5606C19.1561 3.13803 18.8282 3.46596 18.8282 3.87045V8.57748C18.8282 8.98198 19.1561 9.30991 19.5606 9.30991H21.5219C21.9264 9.30991 22.2543 8.98198 22.2543 8.57748C22.2543 8.17299 21.9264 7.84506 21.5219 7.84506H20.293V6.95639H21.1297C21.5341 6.95639 21.8621 6.62846 21.8621 6.22397C21.8621 5.81948 21.5341 5.49155 21.1297 5.49155H20.293V4.60287H21.5219Z" fill="black"/>
<path d="M22.6985 0H2.30146C1.0416 0 0 1.01792 0 2.30146V13.2845C0 14.5472 1.02085 15.5859 2.30146 15.5859H10.1985V17.8086C9.21045 16.9955 7.80928 17.1154 6.96719 17.9575C6.05342 18.8713 6.01465 20.3875 6.96836 21.3406L9.72383 24.096C10.3065 24.679 11.0814 25 11.9057 25H17.9916C19.6932 25 21.0775 23.6156 21.0775 21.9141V17.207C21.0775 16.6127 20.9082 16.0574 20.6159 15.5859H22.6985C23.9583 15.5859 25 14.568 25 13.2845V2.30146C25 1.03896 23.9795 0 22.6985 0ZM2.30146 14.1211C1.84048 14.1211 1.46484 13.7481 1.46484 13.2845V12.2906C1.72427 12.3921 2.00649 12.4479 2.30146 12.4479H10.1985V14.1211H2.30146ZM19.6126 21.9141C19.6126 22.808 18.8854 23.5352 17.9916 23.5352H11.9057C11.4728 23.5352 11.0658 23.3666 10.7596 23.0603L8.00391 20.3045C7.6376 19.9385 7.64473 19.3472 8.00859 18.9892C8.36065 18.6427 8.95776 18.6229 9.33989 19.0053L10.4131 20.0785C10.6226 20.2879 10.9377 20.3506 11.2113 20.2372C11.485 20.1238 11.6634 19.8567 11.6634 19.5605V10.1465C11.6634 9.68457 12.0374 9.30991 12.5 9.30991C12.9613 9.30991 13.3367 9.68521 13.3367 10.1465V14.8535C13.3367 15.258 13.6646 15.5859 14.0691 15.5859H17.9916C18.8855 15.5859 19.6127 16.3132 19.6127 17.207V21.9141H19.6126ZM9.30991 6.22397C9.30991 5.34526 9.87261 4.60288 10.5387 4.60288C11.2048 4.60288 11.7676 5.34526 11.7676 6.22397C11.7676 7.10269 11.2048 7.84507 10.5387 7.84507C9.87261 7.84507 9.30991 7.10269 9.30991 6.22397ZM23.5352 13.2845C23.5352 13.7472 23.1604 14.1211 22.6985 14.1211H14.8015V12.4479H22.6994C22.9899 12.4479 23.2722 12.3944 23.5352 12.292V13.2845ZM23.5352 10.1473C23.5352 10.6098 23.1607 10.9831 22.6994 10.9831H14.8015V10.123C14.8015 8.97271 13.9402 8.00752 12.829 7.84604C13.0844 7.37436 13.2325 6.8187 13.2325 6.22393C13.2325 4.52231 12.0241 3.13799 10.5388 3.13799C9.05347 3.13799 7.84512 4.52236 7.84512 6.22393C7.84512 7.85356 8.95366 9.19136 10.3521 9.30161C10.2523 9.5624 10.1986 9.84106 10.1986 10.123V10.983H2.30146C1.84019 10.9831 1.46484 10.6078 1.46484 10.1465V2.30146C1.46484 1.83955 1.83872 1.46484 2.30146 1.46484H22.6985C23.1595 1.46484 23.5352 1.83779 23.5352 2.30146V10.1473Z" fill="black"/>
</svg>
