<svg width="31" height="31" viewBox="0 0 31 31" fill="none" xmlns="http://www.w3.org/2000/svg">
<g filter="url(#filter0_i_104_1087)">
<circle cx="15.5" cy="15.5" r="15.5" fill="black"/>
</g>
<path d="M21.35 16.8C21.1776 16.8 21.0123 16.8685 20.8904 16.9904C20.7685 17.1123 20.7 17.2776 20.7 17.45V20.05C20.7 20.2224 20.6315 20.3877 20.5096 20.5096C20.3877 20.6315 20.2224 20.7 20.05 20.7H10.95C10.7776 20.7 10.6123 20.6315 10.4904 20.5096C10.3685 20.3877 10.3 20.2224 10.3 20.05V17.45C10.3 17.2776 10.2315 17.1123 10.1096 16.9904C9.98772 16.8685 9.82239 16.8 9.65 16.8C9.47761 16.8 9.31228 16.8685 9.19038 16.9904C9.06848 17.1123 9 17.2776 9 17.45V20.05C9 20.5672 9.20545 21.0632 9.57114 21.4289C9.93684 21.7946 10.4328 22 10.95 22H20.05C20.5672 22 21.0632 21.7946 21.4289 21.4289C21.7946 21.0632 22 20.5672 22 20.05V17.45C22 17.2776 21.9315 17.1123 21.8096 16.9904C21.6877 16.8685 21.5224 16.8 21.35 16.8ZM15.0385 17.9115C15.1003 17.9707 15.1732 18.0171 15.253 18.048C15.3308 18.0824 15.4149 18.1002 15.5 18.1002C15.5851 18.1002 15.6692 18.0824 15.747 18.048C15.8268 18.0171 15.8997 17.9707 15.9615 17.9115L18.5615 15.3115C18.6839 15.1891 18.7527 15.0231 18.7527 14.85C18.7527 14.6769 18.6839 14.5109 18.5615 14.3885C18.4391 14.2661 18.2731 14.1973 18.1 14.1973C17.9269 14.1973 17.7609 14.2661 17.6385 14.3885L16.15 15.8835V9.65C16.15 9.47761 16.0815 9.31228 15.9596 9.19038C15.8377 9.06848 15.6724 9 15.5 9C15.3276 9 15.1623 9.06848 15.0404 9.19038C14.9185 9.31228 14.85 9.47761 14.85 9.65V15.8835L13.3615 14.3885C13.3009 14.3279 13.2289 14.2798 13.1498 14.247C13.0706 14.2142 12.9857 14.1973 12.9 14.1973C12.8143 14.1973 12.7294 14.2142 12.6502 14.247C12.5711 14.2798 12.4991 14.3279 12.4385 14.3885C12.3779 14.4491 12.3298 14.5211 12.297 14.6002C12.2642 14.6794 12.2473 14.7643 12.2473 14.85C12.2473 14.9357 12.2642 15.0206 12.297 15.0998C12.3298 15.1789 12.3779 15.2509 12.4385 15.3115L15.0385 17.9115Z" fill="white"/>
<defs>
<filter id="filter0_i_104_1087" x="0" y="0" width="31" height="31" filterUnits="userSpaceOnUse" color-interpolation-filters="sRGB">
<feFlood flood-opacity="0" result="BackgroundImageFix"/>
<feBlend mode="normal" in="SourceGraphic" in2="BackgroundImageFix" result="shape"/>
<feColorMatrix in="SourceAlpha" type="matrix" values="0 0 0 0 0 0 0 0 0 0 0 0 0 0 0 0 0 0 127 0" result="hardAlpha"/>
<feMorphology radius="1" operator="erode" in="SourceAlpha" result="effect1_innerShadow_104_1087"/>
<feOffset/>
<feGaussianBlur stdDeviation="2"/>
<feComposite in2="hardAlpha" operator="arithmetic" k2="-1" k3="1"/>
<feColorMatrix type="matrix" values="0 0 0 0 1 0 0 0 0 1 0 0 0 0 1 0 0 0 0.25 0"/>
<feBlend mode="normal" in2="shape" result="effect1_innerShadow_104_1087"/>
</filter>
</defs>
</svg>
