<svg width="182" height="66" viewBox="0 0 182 66" fill="none" xmlns="http://www.w3.org/2000/svg">
<path d="M11.7375 17.305C13.7175 17.305 15.1425 16.8325 16.0125 15.8875C16.8825 14.9425 17.3175 13.6225 17.3175 11.9275C17.3175 11.1775 17.205 10.495 16.98 9.88C16.755 9.265 16.41 8.74 15.945 8.305C15.495 7.855 14.9175 7.51 14.2125 7.27C13.5225 7.03 12.6975 6.91 11.7375 6.91H7.7775V17.305H11.7375ZM11.7375 1.2175C14.0475 1.2175 16.0275 1.495 17.6775 2.05C19.3425 2.59 20.7075 3.34 21.7725 4.3C22.8525 5.26 23.6475 6.3925 24.1575 7.6975C24.6675 9.0025 24.9225 10.4125 24.9225 11.9275C24.9225 13.5625 24.66 15.0625 24.135 16.4275C23.61 17.7925 22.8075 18.9625 21.7275 19.9375C20.6475 20.9125 19.275 21.6775 17.61 22.2325C15.96 22.7725 14.0025 23.0425 11.7375 23.0425H7.7775V34H0.1725V1.2175H11.7375ZM37.803 10.3075C39.573 10.3075 41.1855 10.585 42.6405 11.14C44.0955 11.695 45.3405 12.49 46.3755 13.525C47.4255 14.56 48.2355 15.82 48.8055 17.305C49.3905 18.775 49.683 20.4325 49.683 22.2775C49.683 24.1375 49.3905 25.8175 48.8055 27.3175C48.2355 28.8025 47.4255 30.07 46.3755 31.12C45.3405 32.155 44.0955 32.9575 42.6405 33.5275C41.1855 34.0825 39.573 34.36 37.803 34.36C36.018 34.36 34.3905 34.0825 32.9205 33.5275C31.4655 32.9575 30.2055 32.155 29.1405 31.12C28.0905 30.07 27.273 28.8025 26.688 27.3175C26.118 25.8175 25.833 24.1375 25.833 22.2775C25.833 20.4325 26.118 18.775 26.688 17.305C27.273 15.82 28.0905 14.56 29.1405 13.525C30.2055 12.49 31.4655 11.695 32.9205 11.14C34.3905 10.585 36.018 10.3075 37.803 10.3075ZM37.803 29.185C39.408 29.185 40.5855 28.6225 41.3355 27.4975C42.1005 26.3575 42.483 24.6325 42.483 22.3225C42.483 20.0125 42.1005 18.295 41.3355 17.17C40.5855 16.045 39.408 15.4825 37.803 15.4825C36.153 15.4825 34.9455 16.045 34.1805 17.17C33.4155 18.295 33.033 20.0125 33.033 22.3225C33.033 24.6325 33.4155 26.3575 34.1805 27.4975C34.9455 28.6225 36.153 29.185 37.803 29.185ZM60.1705 0.317498V34H53.1955V0.317498H60.1705ZM72.0175 10.6675V34H65.0425V10.6675H72.0175ZM72.7375 4.2775C72.7375 4.8325 72.625 5.3575 72.4 5.8525C72.175 6.3325 71.8675 6.76 71.4775 7.135C71.0875 7.495 70.63 7.7875 70.105 8.0125C69.595 8.2225 69.0475 8.3275 68.4625 8.3275C67.8925 8.3275 67.36 8.2225 66.865 8.0125C66.37 7.7875 65.9275 7.495 65.5375 7.135C65.1625 6.76 64.8625 6.3325 64.6375 5.8525C64.4275 5.3575 64.3225 4.8325 64.3225 4.2775C64.3225 3.7075 64.4275 3.175 64.6375 2.68C64.8625 2.185 65.1625 1.75 65.5375 1.375C65.9275 0.999999 66.37 0.707499 66.865 0.497498C67.36 0.287499 67.8925 0.1825 68.4625 0.1825C69.0475 0.1825 69.595 0.287499 70.105 0.497498C70.63 0.707499 71.0875 0.999999 71.4775 1.375C71.8675 1.75 72.175 2.185 72.4 2.68C72.625 3.175 72.7375 3.7075 72.7375 4.2775ZM83.317 13.1875C83.767 12.7675 84.232 12.3775 84.712 12.0175C85.192 11.6575 85.702 11.3575 86.242 11.1175C86.797 10.8625 87.3895 10.6675 88.0195 10.5325C88.6645 10.3825 89.362 10.3075 90.112 10.3075C91.387 10.3075 92.512 10.5325 93.487 10.9825C94.477 11.4175 95.3095 12.0325 95.9845 12.8275C96.6595 13.6075 97.1695 14.545 97.5145 15.64C97.8595 16.72 98.032 17.8975 98.032 19.1725V34H91.057V19.1725C91.057 18.0325 90.7945 17.1475 90.2695 16.5175C89.7445 15.8725 88.972 15.55 87.952 15.55C87.187 15.55 86.467 15.715 85.792 16.045C85.132 16.36 84.487 16.795 83.857 17.35V34H76.882V10.6675H81.202C82.072 10.6675 82.642 11.0575 82.912 11.8375L83.317 13.1875ZM109.521 0.317498V19.195H110.556C110.991 19.195 111.321 19.135 111.546 19.015C111.771 18.88 111.996 18.6625 112.221 18.3625L116.631 11.7925C116.901 11.4175 117.209 11.14 117.554 10.96C117.899 10.765 118.341 10.6675 118.881 10.6675H125.271L119.241 18.97C118.671 19.72 117.996 20.335 117.216 20.815C117.561 21.07 117.876 21.37 118.161 21.715C118.446 22.045 118.716 22.42 118.971 22.84L125.541 34H119.241C118.716 34 118.266 33.9175 117.891 33.7525C117.516 33.5725 117.201 33.265 116.946 32.83L112.536 24.5725C112.326 24.1975 112.109 23.9575 111.884 23.8525C111.659 23.7325 111.321 23.6725 110.871 23.6725H109.521V34H102.546V0.317498H109.521Z" fill="white"/>
<path d="M96.9102 32.2175L86.7852 65H79.9002L73.7352 44.6825C73.6152 44.3675 73.5027 44.0225 73.3977 43.6475C73.2927 43.2575 73.1877 42.8525 73.0827 42.4325C72.9777 42.8525 72.8727 43.2575 72.7677 43.6475C72.6627 44.0225 72.5502 44.3675 72.4302 44.6825L66.1752 65H59.2902L49.1652 32.2175H55.5552C56.2152 32.2175 56.7627 32.3675 57.1977 32.6675C57.6477 32.9675 57.9402 33.365 58.0752 33.86L62.5752 50.96C62.7102 51.5 62.8452 52.0925 62.9802 52.7375C63.1152 53.3675 63.2502 54.0275 63.3852 54.7175C63.6552 53.3075 63.9852 52.055 64.3752 50.96L69.6852 33.86C69.8202 33.44 70.1052 33.065 70.5402 32.735C70.9902 32.39 71.5302 32.2175 72.1602 32.2175H74.4102C75.0702 32.2175 75.6027 32.375 76.0077 32.69C76.4127 32.99 76.7202 33.38 76.9302 33.86L82.1952 50.96C82.5852 52.01 82.9152 53.2025 83.1852 54.5375C83.3052 53.8625 83.4252 53.2325 83.5452 52.6475C83.6802 52.0475 83.8152 51.485 83.9502 50.96L88.4502 33.86C88.5702 33.425 88.8552 33.0425 89.3052 32.7125C89.7552 32.3825 90.2952 32.2175 90.9252 32.2175H96.9102ZM108.431 55.505C107.036 55.565 105.889 55.685 104.989 55.865C104.089 56.045 103.376 56.27 102.851 56.54C102.326 56.81 101.959 57.1175 101.749 57.4625C101.554 57.8075 101.456 58.1825 101.456 58.5875C101.456 59.3825 101.674 59.945 102.109 60.275C102.544 60.59 103.181 60.7475 104.021 60.7475C104.921 60.7475 105.709 60.59 106.384 60.275C107.059 59.96 107.741 59.45 108.431 58.745V55.505ZM95.8763 44.9075C97.2863 43.6625 98.8463 42.74 100.556 42.14C102.281 41.525 104.126 41.2175 106.091 41.2175C107.501 41.2175 108.769 41.45 109.894 41.915C111.034 42.365 111.994 43.0025 112.774 43.8275C113.569 44.6375 114.176 45.605 114.596 46.73C115.016 47.855 115.226 49.085 115.226 50.42V65H112.031C111.371 65 110.869 64.91 110.524 64.73C110.194 64.55 109.916 64.175 109.691 63.605L109.196 62.3225C108.611 62.8175 108.049 63.2525 107.509 63.6275C106.969 64.0025 106.406 64.325 105.821 64.595C105.251 64.85 104.636 65.0375 103.976 65.1575C103.331 65.2925 102.611 65.36 101.816 65.36C100.751 65.36 99.7838 65.225 98.9138 64.955C98.0438 64.67 97.3013 64.2575 96.6863 63.7175C96.0863 63.1775 95.6213 62.51 95.2913 61.715C94.9613 60.905 94.7963 59.975 94.7963 58.925C94.7963 58.085 95.0063 57.2375 95.4263 56.3825C95.8463 55.5125 96.5738 54.725 97.6088 54.02C98.6438 53.3 100.039 52.7 101.794 52.22C103.549 51.74 105.761 51.47 108.431 51.41V50.42C108.431 49.055 108.146 48.0725 107.576 47.4725C107.021 46.8575 106.226 46.55 105.191 46.55C104.366 46.55 103.691 46.64 103.166 46.82C102.641 47 102.169 47.2025 101.749 47.4275C101.344 47.6525 100.946 47.855 100.556 48.035C100.166 48.215 99.7013 48.305 99.1613 48.305C98.6813 48.305 98.2763 48.185 97.9463 47.945C97.6163 47.705 97.3463 47.42 97.1363 47.09L95.8763 44.9075ZM126.66 31.3175V65H119.685V31.3175H126.66ZM138.349 31.3175V65H131.374V31.3175H138.349ZM157.576 50.5325C157.576 49.9775 157.501 49.4375 157.351 48.9125C157.216 48.3875 156.984 47.9225 156.654 47.5175C156.339 47.0975 155.919 46.76 155.394 46.505C154.869 46.25 154.231 46.1225 153.481 46.1225C152.161 46.1225 151.126 46.505 150.376 47.27C149.626 48.02 149.131 49.1075 148.891 50.5325H157.576ZM148.801 54.5825C149.026 56.5325 149.619 57.95 150.579 58.835C151.539 59.705 152.776 60.14 154.291 60.14C155.101 60.14 155.799 60.0425 156.384 59.8475C156.969 59.6525 157.486 59.435 157.936 59.195C158.401 58.955 158.821 58.7375 159.196 58.5425C159.586 58.3475 159.991 58.25 160.411 58.25C160.966 58.25 161.386 58.4525 161.671 58.8575L163.696 61.355C162.976 62.18 162.196 62.855 161.356 63.38C160.531 63.89 159.676 64.295 158.791 64.595C157.921 64.88 157.044 65.075 156.159 65.18C155.289 65.3 154.456 65.36 153.661 65.36C152.026 65.36 150.489 65.0975 149.049 64.5725C147.624 64.0325 146.371 63.2375 145.291 62.1875C144.226 61.1375 143.379 59.8325 142.749 58.2725C142.134 56.7125 141.826 54.8975 141.826 52.8275C141.826 51.2675 142.089 49.79 142.614 48.395C143.154 47 143.919 45.7775 144.909 44.7275C145.914 43.6775 147.121 42.845 148.531 42.23C149.956 41.615 151.561 41.3075 153.346 41.3075C154.891 41.3075 156.301 41.5475 157.576 42.0275C158.866 42.5075 159.969 43.205 160.884 44.12C161.814 45.035 162.534 46.16 163.044 47.495C163.569 48.815 163.831 50.315 163.831 51.995C163.831 52.52 163.809 52.9475 163.764 53.2775C163.719 53.6075 163.636 53.87 163.516 54.065C163.396 54.26 163.231 54.395 163.021 54.47C162.826 54.545 162.571 54.5825 162.256 54.5825H148.801ZM175.361 65.36C174.251 65.36 173.269 65.2025 172.414 64.8875C171.574 64.5575 170.861 64.1 170.276 63.515C169.706 62.915 169.271 62.195 168.971 61.355C168.671 60.515 168.521 59.5775 168.521 58.5425V46.4825H166.541C166.181 46.4825 165.874 46.37 165.619 46.145C165.364 45.905 165.236 45.56 165.236 45.11V42.3875L168.949 41.6675L170.321 35.975C170.501 35.255 171.011 34.895 171.851 34.895H175.496V41.7125H181.279V46.4825H175.496V58.07C175.496 58.61 175.624 59.06 175.879 59.42C176.149 59.765 176.531 59.9375 177.026 59.9375C177.281 59.9375 177.491 59.915 177.656 59.87C177.836 59.81 177.986 59.75 178.106 59.69C178.241 59.615 178.361 59.555 178.466 59.51C178.586 59.45 178.721 59.42 178.871 59.42C179.081 59.42 179.246 59.4725 179.366 59.5775C179.501 59.6675 179.636 59.8175 179.771 60.0275L181.886 63.335C180.986 64.01 179.974 64.52 178.849 64.865C177.724 65.195 176.561 65.36 175.361 65.36Z" fill="#FFB929"/>
</svg>
